<svg xmlns="http://www.w3.org/2000/svg">
  <symbol viewBox="0 0 21 20" id="arrow">
    <path d="M1.25 13.701C0.532561 14.1152 0.286748 15.0326 0.700962 15.75C1.11518 16.4674 2.03256 16.7133 2.75 16.299L1.25 13.701ZM20.7694 5.38823C20.9838 4.58803 20.5089 3.76552 19.7087 3.55111L6.66874 0.0570541C5.86854 -0.157359 5.04603 0.317515 4.83162 1.11771C4.61721 1.91791 5.09208 2.74042 5.89228 2.95483L17.4834 6.06066L14.3776 17.6518C14.1631 18.452 14.638 19.2745 15.4382 19.4889C16.2384 19.7033 17.0609 19.2284 17.2753 18.4282L20.7694 5.38823ZM2.75 16.299L20.0705 6.29904L18.5705 3.70096L1.25 13.701L2.75 16.299Z"></path>
  </symbol>
  <symbol viewBox="0 0 199 209" id="big-star">
    <path d="M111.343 66.6293L111.511 67.5347L112.179 66.9008L159.311 22.177L131.341 80.823L130.945 81.6542L131.858 81.534L196.276 73.0554L139.177 104.061L138.368 104.5L139.177 104.939L196.276 135.945L131.858 127.466L130.945 127.346L131.341 128.177L159.311 186.823L112.179 142.099L111.511 141.465L111.343 142.371L99.5 206.257L87.6571 142.371L87.4892 141.465L86.8213 142.099L39.6888 186.823L67.659 128.177L68.0554 127.346L67.1425 127.466L2.72353 135.945L59.8231 104.939L60.6323 104.5L59.8231 104.061L2.72352 73.0554L67.1425 81.534L68.0554 81.6542L67.659 80.823L39.6888 22.177L86.8213 66.9008L87.4892 67.5347L87.6571 66.6293L99.5 2.74317L111.343 66.6293Z"></path>
  </symbol>
  <symbol viewBox="0 0 338 71" id="ellipse">
    <path d="M337.5 35.5C337.5 37.7779 336.403 40.0523 334.208 42.3056C332.012 44.5607 328.746 46.76 324.497 48.8704C316 53.0902 303.672 56.9045 288.398 60.113C257.858 66.5282 215.644 70.5 169 70.5C122.356 70.5 80.1418 66.5282 49.6017 60.113C34.3276 56.9045 22.0001 53.0902 13.5033 48.8704C9.25393 46.76 5.98843 44.5607 3.79163 42.3056C1.5966 40.0523 0.5 37.7779 0.5 35.5C0.5 33.2221 1.5966 30.9477 3.79163 28.6944C5.98843 26.4393 9.25393 24.24 13.5033 22.1296C22.0001 17.9098 34.3276 14.0955 49.6017 10.887C80.1418 4.4718 122.356 0.5 169 0.5C215.644 0.5 257.858 4.4718 288.398 10.887C303.672 14.0955 316 17.9098 324.497 22.1296C328.746 24.24 332.012 26.4393 334.208 28.6944C336.403 30.9477 337.5 33.2221 337.5 35.5Z"></path>
  </symbol>
  <symbol viewBox="-5 0 20 20" id="facebook">
    <g stroke="none" stroke-width="1" fill="none" fill-rule="evenodd">
      <g transform="translate(-385.000000, -7399.000000)" fill="#000000">
        <g transform="translate(56.000000, 160.000000)">
          <path d="M335.821282,7259 L335.821282,7250 L338.553693,7250 L339,7246 L335.821282,7246 L335.821282,7244.052 C335.821282,7243.022 335.847593,7242 337.286884,7242 L338.744689,7242 L338.744689,7239.14 C338.744689,7239.097 337.492497,7239 336.225687,7239 C333.580004,7239 331.923407,7240.657 331.923407,7243.7 L331.923407,7246 L329,7246 L329,7250 L331.923407,7250 L331.923407,7259 L335.821282,7259 Z">
          </path>
        </g>
      </g>
    </g>
  </symbol>
  <symbol viewBox="0 0 16 16" id="linkedin">
    <path d="M1.22178 15.0586H4.30589V5.07422H1.22178V15.0586Z"></path>
    <path d="M0.941406 1.88672C0.941406 2.87109 1.7358 3.66797 2.76384 3.66797C3.74514 3.66797 4.53954 2.87109 4.53954 1.88672C4.53954 0.902344 3.74514 0.0585938 2.76384 0.0585938C1.7358 0.0585938 0.941406 0.902344 0.941406 1.88672Z"></path>
    <path d="M12.8106 15.0586H15.9414V9.57422C15.9414 6.90234 15.3339 4.79297 12.2031 4.79297C10.7078 4.79297 9.67972 5.63672 9.25916 6.43359H9.21243V5.07422H6.26851V15.0586H9.35262V10.1367C9.35262 8.82422 9.58627 7.55859 11.2218 7.55859C12.8106 7.55859 12.8106 9.05859 12.8106 10.1836V15.0586Z"></path>
  </symbol>
  <symbol viewBox="0 0 172 29" id="logo">
    <path d="M0.919922 28V0H12.0399C13.7466 0 15.2666 0.346667 16.5999 1.04C17.9599 1.70667 19.0133 2.66667 19.7599 3.92C20.5333 5.14667 20.9199 6.62667 20.9199 8.36V8.88C20.9199 10.6133 20.5199 12.1067 19.7199 13.36C18.9466 14.6133 17.8933 15.5733 16.5599 16.24C15.2266 16.9067 13.7199 17.24 12.0399 17.24H5.23992V28H0.919922ZM5.23992 13.32H11.5999C13.1199 13.32 14.3333 12.92 15.2399 12.12C16.1466 11.32 16.5999 10.2267 16.5999 8.84V8.44C16.5999 7.02667 16.1466 5.92 15.2399 5.12C14.3333 4.32 13.1199 3.92 11.5999 3.92H5.23992V13.32Z"></path>
    <path d="M33.8346 28.56C31.8613 28.56 30.1013 28.16 28.5546 27.36C27.0346 26.5333 25.8346 25.36 24.9546 23.84C24.0746 22.32 23.6346 20.52 23.6346 18.44V17.84C23.6346 15.76 24.0746 13.9733 24.9546 12.48C25.8346 10.96 27.0346 9.78667 28.5546 8.96C30.1013 8.13333 31.8613 7.72 33.8346 7.72C35.8079 7.72 37.5679 8.13333 39.1146 8.96C40.6613 9.78667 41.8746 10.96 42.7546 12.48C43.6346 13.9733 44.0746 15.76 44.0746 17.84V18.44C44.0746 20.52 43.6346 22.32 42.7546 23.84C41.8746 25.36 40.6613 26.5333 39.1146 27.36C37.5679 28.16 35.8079 28.56 33.8346 28.56ZM33.8346 24.88C35.6479 24.88 37.1146 24.3067 38.2346 23.16C39.3813 21.9867 39.9546 20.3733 39.9546 18.32V17.96C39.9546 15.9067 39.3946 14.3067 38.2746 13.16C37.1546 11.9867 35.6746 11.4 33.8346 11.4C32.0479 11.4 30.5813 11.9867 29.4346 13.16C28.3146 14.3067 27.7546 15.9067 27.7546 17.96V18.32C27.7546 20.3733 28.3146 21.9867 29.4346 23.16C30.5813 24.3067 32.0479 24.88 33.8346 24.88Z"></path>
    <path d="M57.284 28.56C54.7773 28.56 52.6973 28 51.044 26.88C49.3907 25.76 48.3773 24.0667 48.004 21.8L51.844 20.88C52.0573 21.9733 52.4173 22.84 52.924 23.48C53.4307 24.12 54.0573 24.5733 54.804 24.84C55.5773 25.1067 56.404 25.24 57.284 25.24C58.5907 25.24 59.5906 24.9867 60.284 24.48C61.004 23.9733 61.364 23.32 61.364 22.52C61.364 21.72 61.0307 21.1333 60.364 20.76C59.6973 20.3867 58.7107 20.08 57.404 19.84L56.044 19.6C54.7107 19.36 53.4973 19.0133 52.404 18.56C51.3106 18.1067 50.444 17.48 49.804 16.68C49.164 15.88 48.844 14.8533 48.844 13.6C48.844 11.7333 49.5373 10.2933 50.924 9.28C52.3106 8.24 54.1506 7.72 56.444 7.72C58.6573 7.72 60.4706 8.22667 61.884 9.24C63.324 10.2267 64.2573 11.5733 64.684 13.28L60.844 14.36C60.604 13.16 60.0973 12.32 59.324 11.84C58.5506 11.3333 57.5906 11.08 56.444 11.08C55.324 11.08 54.444 11.2933 53.804 11.72C53.164 12.12 52.844 12.6933 52.844 13.44C52.844 14.24 53.1507 14.8267 53.764 15.2C54.404 15.5733 55.2573 15.8533 56.324 16.04L57.724 16.28C59.1373 16.52 60.4306 16.8533 61.604 17.28C62.7773 17.7067 63.6973 18.32 64.364 19.12C65.0573 19.92 65.404 20.9867 65.404 22.32C65.404 24.2933 64.6707 25.8267 63.204 26.92C61.7373 28.0133 59.764 28.56 57.284 28.56Z"></path>
    <path d="M70.2196 28V8.28H74.3396V28H70.2196ZM72.2996 5.6C71.4996 5.6 70.8196 5.34667 70.2596 4.84C69.7263 4.30667 69.4596 3.62667 69.4596 2.8C69.4596 1.97333 69.7263 1.30667 70.2596 0.800001C70.8196 0.266667 71.4996 0 72.2996 0C73.1263 0 73.8063 0.266667 74.3396 0.800001C74.8729 1.30667 75.1396 1.97333 75.1396 2.8C75.1396 3.62667 74.8729 4.30667 74.3396 4.84C73.8063 5.34667 73.1263 5.6 72.2996 5.6Z"></path>
    <path d="M87.854 28C86.654 28 85.694 27.64 84.974 26.92C84.2806 26.2 83.934 25.24 83.934 24.04V11.76H78.494V8.28H83.934V1.76H88.054V8.28H93.934V11.76H88.054V23.32C88.054 24.12 88.4273 24.52 89.174 24.52H93.294V28H87.854Z"></path>
    <path d="M98.7743 28V8.28H102.894V28H98.7743ZM100.854 5.6C100.054 5.6 99.3743 5.34667 98.8143 4.84C98.281 4.30667 98.0143 3.62667 98.0143 2.8C98.0143 1.97333 98.281 1.30667 98.8143 0.800001C99.3743 0.266667 100.054 0 100.854 0C101.681 0 102.361 0.266667 102.894 0.800001C103.428 1.30667 103.694 1.97333 103.694 2.8C103.694 3.62667 103.428 4.30667 102.894 4.84C102.361 5.34667 101.681 5.6 100.854 5.6Z"></path>
    <path d="M113.569 28L106.929 8.28H111.289L116.529 24.96H117.169L122.409 8.28H126.769L120.129 28H113.569Z"></path>
    <path d="M138.326 28.36C136.833 28.36 135.5 28.0267 134.326 27.36C133.153 26.6933 132.233 25.7467 131.566 24.52C130.9 23.2933 130.566 21.8267 130.566 20.12V8.28H134.686V19.84C134.686 21.5467 135.113 22.8133 135.966 23.64C136.82 24.44 138.006 24.84 139.526 24.84C141.206 24.84 142.553 24.28 143.566 23.16C144.606 22.0133 145.126 20.3733 145.126 18.24V8.28H149.246V28H145.206V25.04H144.566C144.193 25.84 143.526 26.6 142.566 27.32C141.606 28.0133 140.193 28.36 138.326 28.36Z"></path>
    <path d="M163.417 28.56C160.91 28.56 158.83 28 157.177 26.88C155.523 25.76 154.51 24.0667 154.137 21.8L157.977 20.88C158.19 21.9733 158.55 22.84 159.057 23.48C159.563 24.12 160.19 24.5733 160.937 24.84C161.71 25.1067 162.537 25.24 163.417 25.24C164.723 25.24 165.723 24.9867 166.417 24.48C167.137 23.9733 167.497 23.32 167.497 22.52C167.497 21.72 167.163 21.1333 166.497 20.76C165.83 20.3867 164.843 20.08 163.537 19.84L162.177 19.6C160.843 19.36 159.63 19.0133 158.537 18.56C157.443 18.1067 156.577 17.48 155.937 16.68C155.297 15.88 154.977 14.8533 154.977 13.6C154.977 11.7333 155.67 10.2933 157.057 9.28C158.443 8.24 160.283 7.72 162.577 7.72C164.79 7.72 166.603 8.22667 168.017 9.24C169.457 10.2267 170.39 11.5733 170.817 13.28L166.977 14.36C166.737 13.16 166.23 12.32 165.457 11.84C164.683 11.3333 163.723 11.08 162.577 11.08C161.457 11.08 160.577 11.2933 159.937 11.72C159.297 12.12 158.977 12.6933 158.977 13.44C158.977 14.24 159.283 14.8267 159.897 15.2C160.537 15.5733 161.39 15.8533 162.457 16.04L163.857 16.28C165.27 16.52 166.563 16.8533 167.737 17.28C168.91 17.7067 169.83 18.32 170.497 19.12C171.19 19.92 171.537 20.9867 171.537 22.32C171.537 24.2933 170.803 25.8267 169.337 26.92C167.87 28.0133 165.897 28.56 163.417 28.56Z"></path>
  </symbol>
  <symbol viewBox="0 0 99 98" id="mask">
    <path d="M84.631 48.9117C117.473 86.3213 87.1455 116.649 49.7359 83.8068C12.3263 116.649 -18.0016 86.3213 14.8408 48.9117C-18.0016 11.5021 12.3263 -18.8258 49.7359 14.0166C87.1455 -18.8258 117.473 11.5021 84.631 48.9117Z"></path>
  </symbol>
  <symbol viewBox="0 0 342 368" id="megafon">
    <path d="M152.509 366.59C146.205 368.744 139.001 364.475 136.495 357.071L97.4961 242.81L120.284 235.015L159.322 349.433C161.828 356.758 158.774 364.436 152.509 366.59Z" fill="black"></path>
    <path d="M149.102 368C147.262 368 145.383 367.569 143.581 366.668C139.94 364.866 137.042 361.498 135.633 357.345L96.6343 243.084C96.4776 242.653 96.7126 242.144 97.1824 241.987L119.971 234.192C120.206 234.113 120.441 234.113 120.636 234.231C120.832 234.348 120.989 234.505 121.067 234.74L160.105 349.159C162.728 356.914 159.439 365.101 152.744 367.412C151.608 367.804 150.355 368 149.102 368ZM98.592 243.358L137.317 356.797C138.57 360.518 141.154 363.574 144.364 365.14C146.949 366.394 149.729 366.629 152.235 365.767C158.03 363.769 160.849 356.562 158.5 349.707L119.736 236.111L98.592 243.358Z" fill="black"></path>
    <path d="M116.251 136.382L42.5214 188.988L13.8206 218.798L2.5439 238.736L2.50474 238.892C0.272892 242.339 1.56502 250.291 5.75463 258.399C9.86593 266.39 15.6609 271.953 19.733 272.266L19.6156 272.344L41.2684 274.694L81.7941 268.231L167.818 237.443L274.751 255.775L275.495 255.814C248.635 250.8 212.377 214.88 186.025 164.076C159.713 113.31 151.334 63.132 162.885 38.376H162.845L116.838 135.128L116.251 136.382Z" fill="#B9FF66"></path>
    <path d="M293.266 253.603C319.694 239.873 314.583 177.629 281.852 114.577C249.121 51.5247 201.163 11.5412 174.736 25.2711C148.308 39.001 153.419 101.245 186.15 164.297C218.881 227.349 266.839 267.333 293.266 253.603Z" fill="white"></path>
    <path d="M281.643 257.185C270.131 257.185 256.27 250.761 241.352 238.266C221.031 221.266 201.101 195.06 185.243 164.428C161.241 118.05 151.334 70.4964 160.027 43.2726C162.924 34.1849 167.78 27.8392 174.397 24.4313C187.553 17.6939 206.073 23.4129 226.591 40.5698C246.912 57.57 266.842 83.7754 282.7 114.407C306.742 160.786 316.648 208.339 307.916 235.563C305.019 244.651 300.163 250.996 293.546 254.404C289.983 256.284 285.989 257.185 281.643 257.185ZM186.378 23.4129C182.345 23.4129 178.586 24.2355 175.219 25.9982C168.993 29.171 164.451 35.2033 161.711 43.8601C153.136 70.6923 163.003 117.737 186.809 163.723C219.23 226.279 266.764 266.312 292.802 252.955C299.028 249.782 303.57 243.75 306.311 235.093C314.886 208.261 305.019 161.216 281.212 115.23C252.981 60.782 213.356 23.4129 186.378 23.4129Z" fill="black"></path>
    <path d="M281.643 257.185C270.131 257.185 256.27 250.761 241.352 238.266C221.031 221.265 201.101 195.06 185.243 164.428C161.241 118.05 151.334 70.4963 160.027 43.2725C162.924 34.1848 167.78 27.8391 174.397 24.4312C183.207 19.8874 194.718 21.0234 207.679 27.6824C220.091 34.0673 233.521 45.3877 246.599 60.3902C246.912 60.7427 246.873 61.2911 246.521 61.6045C246.168 61.9179 245.62 61.8787 245.307 61.5262C218.76 31.0511 191.899 17.4196 175.219 25.9981C168.993 29.1709 164.451 35.2033 161.711 43.86C153.136 70.6922 163.003 117.737 186.809 163.723C215.001 218.132 254.665 255.54 281.604 255.54C285.637 255.54 289.396 254.717 292.763 252.955C298.989 249.782 303.531 243.75 306.272 235.093C314.847 208.261 304.98 161.216 281.173 115.23C274.086 101.52 266.098 88.6325 257.523 76.9204C257.249 76.5286 257.328 75.9803 257.719 75.7061C258.111 75.4319 258.659 75.5102 258.933 75.9019C267.586 87.6924 275.574 100.658 282.739 114.446C306.742 160.785 316.648 208.339 307.916 235.563C305.019 244.65 300.163 250.996 293.546 254.404C289.983 256.284 285.989 257.185 281.643 257.185Z" fill="black"></path>
    <path d="M233.303 173.339C239.426 170.158 238.248 155.751 230.673 141.159C223.098 126.567 211.995 117.316 205.872 120.497C199.75 123.678 200.928 138.085 208.503 152.677C216.077 167.269 227.181 176.52 233.303 173.339Z" fill="#B9FF66"></path>
    <path d="M230.624 174.848C223.889 174.848 214.492 166.152 207.718 153.03C202.08 142.14 199.77 130.937 201.845 124.474C202.589 122.202 203.803 120.596 205.486 119.734C212.143 116.326 223.537 125.61 231.446 140.847C237.085 151.737 239.395 162.94 237.32 169.403C236.576 171.675 235.362 173.281 233.678 174.143C232.738 174.613 231.72 174.848 230.624 174.848ZM208.54 120.714C207.718 120.714 206.935 120.87 206.269 121.223C204.977 121.889 204.038 123.142 203.45 124.983C201.532 131.016 203.764 141.748 209.206 152.246C216.411 166.152 227.257 175.514 232.856 172.615C234.148 171.949 235.088 170.696 235.675 168.855C237.594 162.783 235.323 152.09 229.919 141.592C223.576 129.41 214.492 120.714 208.54 120.714Z" fill="#B9FF66"></path>
    <path d="M275.692 242.574C265.59 242.574 253.452 236.934 240.374 226.005C222.597 211.12 205.134 188.166 191.273 161.373C170.247 120.792 161.593 79.153 169.19 55.2978C171.735 47.307 176.003 41.7447 181.837 38.7285C195.228 31.8736 214.923 39.7861 235.91 60.4292C236.262 60.7818 236.262 61.291 235.91 61.6435C235.558 61.9961 235.049 61.9961 234.696 61.6435C214.257 41.5488 195.267 33.7146 182.62 40.2562C177.216 43.0373 173.262 48.2471 170.834 55.8071C163.355 79.2313 171.97 120.361 192.8 160.589C217.429 208.182 252.081 240.851 275.653 240.851C279.177 240.851 282.426 240.107 285.402 238.618C290.806 235.837 294.76 230.627 297.188 223.067C304.667 199.643 296.052 158.513 275.222 118.285C268.918 106.142 261.87 94.743 254.274 84.4411C254 84.0493 254.078 83.5009 254.47 83.2267C254.861 82.9526 255.409 83.0309 255.683 83.4226C263.358 93.8421 270.445 105.28 276.788 117.501C297.814 158.082 306.468 199.721 298.872 223.576C296.327 231.567 292.059 237.13 286.224 240.146C283.014 241.752 279.49 242.574 275.692 242.574Z" fill="black"></path>
    <path d="M41.3084 275.517C41.2692 275.517 41.2301 275.517 41.2301 275.517L19.5772 273.167C19.4597 273.167 19.3423 273.128 19.2248 273.05C14.7611 272.344 9.12276 266.704 5.01146 258.791C0.626074 250.448 -0.666049 242.3 1.72242 238.462L1.76158 238.344L13.0383 218.367C13.0774 218.289 13.1166 218.249 13.1558 218.21L41.8565 188.401C41.8957 188.362 41.9349 188.323 41.974 188.284L115.508 135.794L162.024 37.9845C162.141 37.7886 162.298 37.632 162.533 37.5536C162.768 37.4753 163.003 37.4753 163.199 37.5928C163.629 37.7886 163.825 38.2979 163.629 38.7288C151.844 63.994 161.163 114.211 186.77 163.645C212.417 213.157 248.165 249.821 275.692 254.874C276.122 254.953 276.436 255.344 276.396 255.814C276.357 256.245 275.966 256.559 275.535 256.598L274.791 256.559C274.752 256.559 274.713 256.559 274.674 256.559L167.936 238.266L82.1081 268.976C82.069 268.976 81.9907 269.015 81.9515 269.015L41.4258 275.478C41.3867 275.517 41.3475 275.517 41.3084 275.517ZM20.2037 271.522L41.3084 273.794L81.6383 267.331L167.623 236.581C167.78 236.542 167.897 236.503 168.054 236.542L264.141 252.994C238.181 241.595 207.836 207.947 185.321 164.468C162.964 121.301 152.979 77.4689 158.461 49.775L117.035 136.735C116.956 136.852 116.878 136.97 116.761 137.048L43.1095 189.655L14.5262 219.307L3.24948 239.284C3.24948 239.323 3.21032 239.363 3.21032 239.363C1.17425 242.535 2.54468 250.37 6.49936 258.008C10.3757 265.49 15.9749 271.13 19.8121 271.404C19.9688 271.404 20.0862 271.444 20.2037 271.522Z" fill="black"></path>
    <path d="M116.367 136.069L162.845 38.3369H162.884C151.333 63.093 159.751 113.271 186.025 164.037C212.376 214.881 248.634 250.8 275.573 255.736L274.829 255.697L168.052 237.404L165.586 236.973C153.173 234.779 136.611 218.641 124.747 195.608C112.569 171.988 110.416 148.447 115.819 137.244L116.367 136.069Z" fill="white"></path>
    <path d="M275.573 256.598C275.573 256.598 275.534 256.598 275.573 256.598L274.79 256.558C274.751 256.558 274.711 256.558 274.672 256.558L167.896 238.266L165.429 237.835C152.312 235.524 135.671 218.719 123.964 196.039C110.69 170.265 110.025 147.311 115.036 136.891L115.624 135.716L162.101 38.0236C162.218 37.8277 162.375 37.671 162.61 37.5927C162.845 37.5143 163.08 37.5143 163.276 37.6319C163.706 37.8277 163.902 38.3369 163.706 38.7678C151.921 64.0331 161.24 114.25 186.847 163.684C212.494 213.196 248.243 249.86 275.769 254.913C276.199 254.992 276.513 255.383 276.473 255.853C276.356 256.245 276.004 256.598 275.573 256.598ZM158.381 49.7749L117.151 136.46L116.563 137.635C111.591 147.977 113.04 171.087 125.491 195.217C136.963 217.466 153.134 233.918 165.742 236.111L168.209 236.542L264.1 252.994C238.14 241.595 207.795 207.947 185.281 164.467C162.923 121.301 152.939 77.4687 158.381 49.7749Z" fill="black"></path>
    <path d="M40.1332 275.4C40.0941 275.4 40.0549 275.4 40.0549 275.4L19.5376 273.206C19.4201 273.206 19.3026 273.167 19.1852 273.089C14.7215 272.384 9.08311 266.743 4.97181 258.831C0.625575 250.448 -0.666547 242.3 1.72192 238.462L1.76108 238.344L13.0378 218.367C13.2727 217.936 13.7817 217.819 14.2124 218.054C14.6432 218.289 14.7606 218.798 14.5257 219.229L3.24898 239.284C3.24898 239.323 3.20982 239.363 3.20982 239.363C1.17375 242.535 2.54418 250.37 6.49886 258.008C10.3752 265.49 15.9744 271.13 19.8116 271.404C19.9291 271.404 20.0857 271.444 20.164 271.522L40.2115 273.676C40.6814 273.716 41.0338 274.146 40.9555 274.616C40.9163 275.047 40.5639 275.4 40.1332 275.4Z" fill="black"></path>
    <path d="M41.5034 274.538C34.847 274.068 25.528 264.628 18.7542 251.584C11.5888 237.756 9.90508 223.459 14.2905 218.367L2.58305 238.736L2.50474 238.892C0.272892 242.339 1.56502 250.291 5.75463 258.399C9.86593 266.39 15.6609 271.953 19.733 272.266L19.6156 272.344L41.5034 274.538Z" fill="white"></path>
    <path d="M41.5036 275.4C41.4645 275.4 41.4645 275.4 41.4253 275.4C41.2687 275.4 41.0729 275.36 40.9163 275.36L19.5376 273.206C19.4201 273.206 19.3026 273.167 19.1852 273.088C14.7215 272.383 9.08311 266.743 4.97181 258.83C0.625575 250.448 -0.666547 242.3 1.72192 238.461L1.76108 238.344L12.0589 220.404C12.4505 219.385 12.9595 218.484 13.586 217.74C13.86 217.387 14.3691 217.348 14.7215 217.583C15.0739 217.857 15.1913 218.327 14.9564 218.719L13.5076 221.187C11.1975 227.415 13.4685 239.636 19.4201 251.074C25.8807 263.57 34.6906 272.697 40.9946 273.519L41.4645 273.559C41.9344 273.598 42.2867 274.029 42.2476 274.499C42.2867 275.047 41.9343 275.4 41.5036 275.4ZM20.164 271.522L35.1213 273.049C29.3655 269.367 23.0224 261.768 17.9713 251.975C13.0769 242.535 10.6493 232.742 11.0409 225.692L3.24898 239.284C3.24898 239.323 3.20982 239.362 3.20982 239.362C1.17375 242.535 2.54418 250.369 6.49886 258.008C10.3752 265.489 15.9744 271.13 19.8116 271.404C19.9291 271.404 20.0857 271.443 20.164 271.522Z" fill="black"></path>
    <path d="M80.345 268.388L82.0678 268.035C72.7489 269.994 58.0265 255.892 47.6504 235.876C37.0393 215.429 35.0424 195.021 42.5602 188.988L41.5813 189.968L14.3684 218.249C9.9047 223.263 11.5492 237.639 18.7538 251.544C25.6843 264.941 35.5122 274.499 42.2078 274.459L80.345 268.388Z" fill="black"></path>
    <path d="M42.1694 275.36C35.0432 275.36 25.1369 265.764 17.9715 251.975C10.6886 237.874 8.84831 223.146 13.7036 217.701L40.4074 189.968C40.8773 189.341 41.4255 188.793 42.0128 188.323C42.3652 188.048 42.8742 188.088 43.1875 188.401C43.5007 188.753 43.5007 189.263 43.1875 189.576L41.6604 191.182C36.2178 198.468 38.9195 217.113 48.4343 235.484C58.6929 255.305 73.0237 268.897 81.7945 267.252L81.912 267.213C82.3818 267.135 82.8125 267.409 82.93 267.879C83.0083 268.349 82.7342 268.78 82.2644 268.897C82.2252 268.897 82.1861 268.897 82.1469 268.936L80.5415 269.25H80.5024L42.3652 275.321C42.2869 275.321 42.2086 275.36 42.1694 275.36ZM38.1364 194.825L14.9957 218.876C10.6886 223.733 12.6464 237.913 19.5377 251.192C26.2724 264.197 35.7871 273.598 42.1694 273.637L75.8429 268.27C66.7589 265.058 55.5605 252.955 46.9072 236.307C38.6846 220.443 35.513 204.304 38.1364 194.825Z" fill="black"></path>
    <path d="M205.878 120.479C199.731 123.612 200.631 138.145 208.462 152.638C221.579 176.885 232.034 174.025 233.248 173.594C233.287 173.594 233.287 173.634 233.248 173.634L210.733 191.77C204.116 182.486 197.812 172.145 192.017 160.981C186.496 150.288 181.837 139.633 178.156 129.292L205.878 120.479Z" fill="black"></path>
    <path d="M210.733 192.631C210.694 192.631 210.655 192.631 210.616 192.631C210.381 192.592 210.185 192.475 210.028 192.279C203.255 182.76 196.951 172.341 191.273 161.412C185.83 150.914 181.132 140.221 177.373 129.645C177.295 129.41 177.295 129.174 177.412 128.979C177.53 128.783 177.686 128.626 177.921 128.548L205.643 119.734C206.074 119.617 206.544 119.813 206.7 120.243C206.857 120.674 206.7 121.144 206.309 121.34C204.977 122.006 203.998 123.338 203.411 125.297C201.493 131.446 203.842 142.336 209.284 152.325C222.088 175.984 231.955 173.281 233.013 172.889C233.404 172.733 233.874 172.928 234.07 173.281C234.266 173.634 234.187 174.143 233.874 174.417L211.281 192.436C211.125 192.553 210.929 192.631 210.733 192.631ZM179.292 129.84C183.011 140.064 187.553 150.405 192.8 160.59C198.282 171.166 204.39 181.233 210.929 190.516L230.467 174.77C226.004 174.574 217.585 171.244 207.718 153.03C202.002 142.493 199.652 131.368 201.727 124.67C202.002 123.808 202.315 123.064 202.706 122.359L179.292 129.84Z" fill="black"></path>
  </symbol>
  <symbol viewBox="0 0 651 649" id="mega-star">
    <path d="M325.641 162.061L346.068 0.5L345.909 163.337L386.445 5.60362L366.017 167.165L426.024 15.6514L385.488 173.545L464.007 30.6432L403.841 182.157L499.756 50.2603L421.077 193.162L532.632 74.343L436.876 206.08L562.475 102.253L450.761 220.913L588.489 133.673L462.73 237.499L610.353 168.122L472.625 255.362L627.749 204.964L480.126 274.341L640.356 243.719L485.233 294.118L648.017 283.751L487.786 314.213L650.57 324.42L487.786 334.628L648.017 365.09L485.233 354.883L640.356 405.121L480.126 374.659L627.749 444.036L472.625 393.638L610.353 480.878L462.73 411.501L588.489 515.328L450.761 427.928L562.475 546.747L436.876 442.76L532.632 574.657L421.077 455.838L499.756 598.58L403.841 466.684L464.007 618.197L385.488 475.455L426.024 633.189L366.017 481.676L386.445 643.396L345.909 485.503L346.068 648.5L325.641 486.779L305.213 648.5L305.213 485.503L264.676 643.396L285.264 481.676L225.257 633.189L265.794 475.455L187.274 618.197L247.44 466.684L151.526 598.58L230.205 455.838L118.49 574.657L214.405 442.76L88.8058 546.747L200.52 427.928L62.7923 515.328L188.551 411.501L40.9282 480.878L178.656 393.638L23.5326 444.036L171.155 374.659L10.9248 405.121L166.048 354.883L3.26441 365.09L163.495 334.628L0.710937 324.42L163.495 314.213L3.26441 283.751L166.048 294.118L10.9248 243.719L171.155 274.341L23.5326 204.964L178.656 255.362L40.9282 168.122L188.551 237.499L62.7923 133.673L200.52 220.913L88.8058 102.253L214.405 206.08L118.49 74.343L230.205 193.162L151.526 50.2603L247.44 182.157L187.274 30.6432L265.794 173.545L225.257 15.6514L285.264 167.165L264.676 5.60362L305.213 163.337V0.5L325.641 162.061Z" stroke-width="2" stroke-miterlimit="10"></path>
  </symbol>
  <symbol viewBox="0 0 37 36" id="star">
    <path d="M18.5357 5.53472L36.1368 0.349121L31.0011 18.0001L36.1368 35.6012L18.5357 30.4655L0.884766 35.6012L6.07036 18.0001L0.884766 0.349121L18.5357 5.53472Z" stroke-miterlimit="10"></path>
  </symbol>
  <symbol viewBox="0 0 160 156" id="middle-star">
    <path d="M80 0L97.7892 45.0603L144.11 30.8738L119.972 72.8766L159.944 100.247L112.055 107.563L115.578 155.879L80 123L44.4215 155.879L47.9449 107.563L0.0559082 100.247L40.028 72.8766L15.8898 30.8738L62.2108 45.0603L80 0Z"></path>
  </symbol>
  <symbol viewBox="0 0 18 16" id="twitter">
    <path d="M15.9961 4.4915C16.6854 3.97449 17.3058 3.35409 17.7884 2.63028C17.168 2.90602 16.4442 3.11282 15.7204 3.18176C16.4786 2.73369 17.0301 2.04435 17.3058 1.18267C16.6165 1.59628 15.8238 1.90648 15.031 2.07881C14.3417 1.35501 13.4111 0.941406 12.3771 0.941406C10.378 0.941406 8.75804 2.56135 8.75804 4.56043C8.75804 4.83617 8.79251 5.1119 8.86144 5.38764C5.86282 5.2153 3.1744 3.76769 1.38212 1.59628C1.07192 2.11328 0.899586 2.73369 0.899586 3.42302C0.899586 4.66383 1.51999 5.76677 2.51953 6.42165C1.93359 6.38718 1.34766 6.24931 0.86512 5.97358V6.00804C0.86512 7.76585 2.10593 9.21346 3.76034 9.55813C3.48461 9.62707 3.13994 9.696 2.82973 9.696C2.58847 9.696 2.38166 9.66154 2.1404 9.62707C2.58847 11.0747 3.93267 12.1087 5.51815 12.1432C4.27734 13.1082 2.72633 13.6942 1.03745 13.6942C0.727252 13.6942 0.451517 13.6597 0.175781 13.6252C1.76126 14.6592 3.65694 15.2452 5.72495 15.2452C12.3771 15.2452 15.9961 9.76494 15.9961 4.97403C15.9961 4.8017 15.9961 4.66383 15.9961 4.4915Z"></path>
  </symbol>
  <symbol viewBox="0 0 24 24" id="heart">
  <path d="M2 9.1371C2 14 6.01943 16.5914 8.96173 18.9109C10 19.7294 11 20.5 12 20.5C13 20.5 14 19.7294 15.0383 18.9109C17.9806 16.5914 22 14 22 9.1371C22 4.27416 16.4998 0.825464 12 5.50063C7.50016 0.825464 2 4.27416 2 9.1371Z"/>
  </symbol>
  <symbol viewBox="0 0 32 32" id="cancel">
    <defs><style>.cls-1{fill:#231f20;}</style></defs><g><path class="cls-1" d="M28,29a1,1,0,0,1-.71-.29l-24-24A1,1,0,0,1,4.71,3.29l24,24a1,1,0,0,1,0,1.42A1,1,0,0,1,28,29Z"/><path class="cls-1" d="M4,29a1,1,0,0,1-.71-.29,1,1,0,0,1,0-1.42l24-24a1,1,0,1,1,1.42,1.42l-24,24A1,1,0,0,1,4,29Z"/></g>
  </symbol>
  <symbol viewBox="0 0 24 24" id="hamburger">
    <path d="M2,4A1,1,0,0,1,3,3H21a1,1,0,0,1,0,2H3A1,1,0,0,1,2,4Zm1,9H21a1,1,0,0,0,0-2H3a1,1,0,0,0,0,2Zm0,8H21a1,1,0,0,0,0-2H3a1,1,0,0,0,0,2Z"/>
  </symbol>
  <symbol viewBox="0 0 100 100" id="service1">
    <style type="text/css">
      .st0{fill:none;stroke:#000000;stroke-miterlimit:10;}
      .st1{fill:none;stroke:#000000;stroke-linecap:round;stroke-linejoin:round;stroke-miterlimit:10;}
      .st2{fill:#FFFFFF;stroke:#000000;stroke-miterlimit:10;}
      .st3{fill:none;stroke:#000000;stroke-linecap:round;stroke-miterlimit:10;}
      .st4{fill:#FFFFFF;stroke:#000000;stroke-linecap:round;stroke-linejoin:round;stroke-miterlimit:10;}
    </style>
    <g>
      <path class="st0" d="M10,56h11c1.1,0,2,0.9,2,2v14c0,1.1,0.9,2,2,2h27.1c1.1,0,2-0.9,2-2v-7.5c0-1.1,0.9-2.1,2.1-2.1h16.9
        c1.1,0,1.9-0.9,1.9-1.9V37"/>
      <path class="st0" d="M19.5,28.5v16c0,1.1,0.9,2,2,2h14.9c1.1,0,2,0.9,2,2v8.2c0,1.1,0.9,2,2,2h14.6c1.1,0,2,0.9,2,2v5.7
        c0,1.1,0.9,2,2,2h18.3"/>
      <path class="st0" d="M30,36v27.6c0,1.1,0.9,2,2,2h14.8c1.2,0,2.2-1,2.2-2.2v-8.2c0-1.1,0.9-2,2-2h32"/>
      <circle class="st0" cx="11.5" cy="74.5" r="9"/>
      <path class="st1" d="M11.5,83.5v-18c0,0,3.2,4.1,3.2,8.5C14.7,78.5,11.5,83.5,11.5,83.5z"/>
      <path class="st1" d="M11.5,83.5c0,0-2.6-4-2.6-9.5c0-5.5,2.6-8.5,2.6-8.5s6.1,2.1,6.1,8.5C17.6,80.5,11.5,83.5,11.5,83.5z"/>
      <path class="st1" d="M11.5,65.5c0,0-5.5,2-5.5,8.5s5.5,9.5,5.5,9.5"/>
      <line class="st0" x1="2.5" y1="74.5" x2="20.5" y2="74.5"/>
      <path class="st0" d="M3.9,69.6c0,0,2.7,2.1,7.6,2.1s7.7-1.8,7.7-1.8"/>
      <path class="st0" d="M3.3,78.1c0,0,3.9-1.5,8.2-1.5s8.2,1.5,8.2,1.5"/>
      <path class="st0" d="M5.5,81.2c0,0,2.9-1.4,6-1.4s6,1.4,6,1.4"/>
      <path class="st0" d="M5.5,67.8c0,0,2.4,1.1,6,1.1s6.1-1,6.1-1"/>
      <circle class="st2" cx="85" cy="79" r="8.5"/>
      <path class="st3" d="M79.5,80.5c0,0,1,4.6,5.5,4.6s5.5-4.6,5.5-4.6"/>
      <ellipse cx="87.5" cy="75.5" rx="1.5" ry="2.5"/>
      <ellipse cx="82.5" cy="75.5" rx="1.5" ry="2.5"/>
      <circle cx="19.5" cy="28.5" r="1"/>
      <circle cx="30" cy="36" r="1"/>
      <circle cx="10.1" cy="56" r="1"/>
      <circle cx="77.5" cy="68.5" r="1"/>
      <circle cx="83.1" cy="53.2" r="1"/>
      <circle cx="75" cy="37" r="1"/>
      <polygon points="15.1,43.8 11.8,44.5 11.2,47.8 10.4,44.6 7.2,43.9 10.5,43.3 11.1,39.9 11.8,43.1 	"/>
      <polygon points="60.8,73.5 59.1,73.8 58.8,75.4 58.4,73.8 56.8,73.5 58.5,73.2 58.8,71.5 59.1,73.1 	"/>
      <polygon points="72.8,24.2 71.2,24.5 70.9,26.2 70.5,24.6 68.9,24.2 70.6,23.9 70.8,22.2 71.2,23.9 	"/>
      <line class="st3" x1="88" y1="30.7" x2="88" y2="47.8"/>
      <line class="st3" x1="96.8" y1="39.3" x2="79.5" y2="39.3"/>
      <line class="st3" x1="94.1" y1="33.4" x2="82.1" y2="45.4"/>
      <line class="st3" x1="82.1" y1="33.4" x2="94.1" y2="45.4"/>
      <circle cx="88" cy="39.4" r="1.9"/>
      <circle class="st0" cx="53.2" cy="37" r="11.3"/>
      <circle class="st0" cx="53.2" cy="37" r="14.3"/>
      <line class="st3" x1="58" y1="32.3" x2="48.7" y2="41.6"/>
      <line class="st3" x1="57.5" y1="35.3" x2="51.3" y2="41.5"/>
      <line class="st3" x1="42.3" y1="46.3" x2="38.5" y2="50"/>
      <line class="st3" x1="44.2" y1="48.1" x2="40.2" y2="52.1"/>
      <path class="st4" d="M37.6,49.6L26,61.1c0,0-1.4,1.7,0,3.1c1.4,1.4,3.3,0,3.3,0L40.6,53L37.6,49.6z"/>
      <line class="st3" x1="30.9" y1="9.4" x2="30.9" y2="26.5"/>
      <line class="st3" x1="39.6" y1="17.9" x2="22.4" y2="17.9"/>
      <line class="st3" x1="37" y1="12.1" x2="25" y2="24.1"/>
      <line class="st3" x1="24.9" y1="12.1" x2="36.9" y2="24.1"/>
      <circle cx="30.9" cy="18.1" r="1.9"/>
    </g>
  </symbol>
  <symbol viewBox="0 0 100 100" id="service2">
    <style type="text/css">
      .st0{fill:none;stroke:#000000;stroke-miterlimit:10;}
      .st1{fill:none;stroke:#000000;stroke-linecap:round;stroke-linejoin:round;stroke-miterlimit:10;}
      .st2{fill:#FFFFFF;stroke:#000000;stroke-miterlimit:10;}
    </style>
    <g>
      <ellipse class="st0" cx="27.9" cy="21.1" rx="26.8" ry="5.8"/>
      <ellipse class="st0" cx="27.9" cy="27.1" rx="26.8" ry="5.8"/>
      <ellipse class="st0" cx="27.9" cy="33.1" rx="26.8" ry="5.8"/>
      <ellipse class="st0" cx="27.9" cy="38.1" rx="26.8" ry="5.8"/>
      <ellipse class="st0" cx="27.9" cy="44.1" rx="26.8" ry="5.8"/>
      <ellipse class="st0" cx="27.9" cy="50.1" rx="26.8" ry="5.8"/>
      <ellipse class="st0" cx="27.9" cy="56.1" rx="26.8" ry="5.8"/>
      <ellipse class="st0" cx="27.9" cy="61.1" rx="26.8" ry="5.8"/>
      <g>
        <circle class="st0" cx="84.9" cy="68.5" r="13.9"/>
        <path class="st1" d="M84.9,82.5V54.6c0,0,4.9,6.3,4.9,13.2S84.9,82.5,84.9,82.5z"/>
        <path class="st1" d="M84.9,82.5c0,0-4.1-6.2-4.1-14.6s4.1-13.2,4.1-13.2s9.4,3.2,9.4,13.2S84.9,82.5,84.9,82.5z"/>
        <path class="st1" d="M84.9,54.6c0,0-8.5,3.1-8.5,13.2s8.5,14.7,8.5,14.7"/>
        <line class="st0" x1="71" y1="68.5" x2="98.8" y2="68.5"/>
        <path class="st0" d="M73.2,61c0,0,4.2,3.2,11.7,3.2s11.9-2.9,11.9-2.9"/>
        <path class="st0" d="M72.2,74.1c0,0,6-2.3,12.8-2.3c6.7,0,12.8,2.3,12.8,2.3"/>
        <path class="st0" d="M75.6,78.9c0,0,4.4-2.2,9.3-2.2c4.9,0,9.3,2.2,9.3,2.2"/>
        <path class="st0" d="M75.6,58.2c0,0,3.8,1.6,9.3,1.6c5.6,0,9.4-1.6,9.4-1.6"/>
      </g>
      <path class="st2" d="M82.9,72.3H17.8c-1.1,0-2-0.9-2-2V26.4c0-1.1,0.9-2,2-2h65.1c1.1,0,2,0.9,2,2v43.9
        C84.9,71.4,84,72.3,82.9,72.3z"/>
      <line class="st2" x1="15.7" y1="32.1" x2="84.9" y2="32.1"/>
      <circle class="st2" cx="20.3" cy="28.3" r="1.4"/>
      <circle class="st2" cx="25.3" cy="28.3" r="1.4"/>
      <circle class="st2" cx="30.3" cy="28.3" r="1.4"/>
      <polyline class="st0" points="34.3,55.1 33.8,54.6 32.2,61 30.7,53.9 26.7,59 28.2,52.4 21.7,54.6 26.7,50 19.8,48.3 26.7,47.2 
        21.2,42.2 27.8,44.2 26,37.4 30.3,42.7 32,36.1 33.8,42.9 38.3,38.2 36.8,44.2 42.6,42.8 38.2,46.8 44.2,48.3 37.7,50 42.9,54.6 
        36.3,52.5 38.4,59 34.3,55.1 	"/>
      <g>
        <path d="M51.6,53.7l-16.9-4.5v0.5c0,0.8-0.7,1.5-1.5,1.5h-0.1l4.5,16.8l4.8-6l5,5l2.9-3.7l-4.8-4.6L51.6,53.7z"/>
        <path d="M34.7,49.2v-1.9c0-0.8-0.7-1.5-1.5-1.5h-2.4c-0.8,0-1.5,0.7-1.5,1.5v2.4c0,0.8,0.7,1.5,1.5,1.5h2.3l-0.7-2.7L34.7,49.2z"
          />
      </g>
      <path class="st0" d="M51.2,51.2h-2.4c-0.8,0-1.5-0.7-1.5-1.5v-2.4c0-0.8,0.7-1.5,1.5-1.5h2.4c0.8,0,1.5,0.7,1.5,1.5v2.4
        C52.7,50.6,52,51.2,51.2,51.2z"/>
      <path class="st0" d="M69.2,51.2h-2.4c-0.8,0-1.5-0.7-1.5-1.5v-2.4c0-0.8,0.7-1.5,1.5-1.5h2.4c0.8,0,1.5,0.7,1.5,1.5v2.4
        C70.7,50.6,70,51.2,69.2,51.2z"/>
      <path class="st1" d="M58.8,74.1c0,0,0.6,5.5,7.4,5.5H16.9c0,0-5.8-0.5-8.1-6.3"/>
      <path class="st1" d="M66.2,79.6c0,0-5.3-0.6-7.1,5.1"/>
      <path class="st0" d="M60.8,16.1h21.8c5.4,0,9.8,4.4,9.8,9.8V48"/>
      <circle cx="60.8" cy="16.1" r="0.8"/>
      <circle cx="92.3" cy="48" r="0.8"/>
    </g>
  </symbol>
  <symbol viewBox="0 0 100 100" id="service3">
    <style type="text/css">
      .st0{fill:none;stroke:#000000;stroke-miterlimit:10;}
      .st1{fill:none;stroke:#000000;stroke-linecap:round;stroke-linejoin:round;stroke-miterlimit:10;}
      .st2{stroke:#000000;stroke-miterlimit:10;}
      .st3{fill:#FFFFFF;stroke:#000000;stroke-miterlimit:10;}
      .st4{fill:none;stroke:#000000;stroke-linecap:round;stroke-miterlimit:10;}
      .st5{fill:#FFFFFF;stroke:#000000;stroke-linecap:round;stroke-linejoin:round;stroke-miterlimit:10;}
      .st6{fill:#FFFFFF;}
    </style>
    <circle class="st0" cx="88.4" cy="69.4" r="7"/>
    <path class="st1" d="M88.4,76.3V62.4c0,0,2.5,3.2,2.5,6.6C90.9,72.5,88.4,76.3,88.4,76.3z"/>
    <path class="st1" d="M88.4,76.3c0,0-2-3.1-2-7.3s2-6.6,2-6.6s4.7,1.6,4.7,6.6C93.1,74,88.4,76.3,88.4,76.3z"/>
    <path class="st1" d="M88.4,62.4c0,0-4.2,1.5-4.2,6.6c0,5,4.2,7.3,4.2,7.3"/>
    <line class="st0" x1="81.4" y1="69.4" x2="95.3" y2="69.4"/>
    <path class="st0" d="M82.5,65.6c0,0,2.1,1.6,5.9,1.6s5.9-1.4,5.9-1.4"/>
    <path class="st0" d="M82,72.1c0,0,3-1.2,6.3-1.2s6.3,1.2,6.3,1.2"/>
    <path class="st0" d="M83.7,74.5c0,0,2.2-1.1,4.6-1.1s4.6,1.1,4.6,1.1"/>
    <path class="st0" d="M83.7,64.2c0,0,1.9,0.8,4.6,0.8s4.7-0.8,4.7-0.8"/>
    <path class="st2" d="M84.8,18.8v9.7H17.9v-9.7c0-1.5,1.2-2.8,2.8-2.8H82C83.5,16,84.8,17.2,84.8,18.8z"/>
    <path class="st3" d="M84.8,28.5V80c0,1.5-1.2,2.8-2.8,2.8H20.7c-1.5,0-2.8-1.2-2.8-2.8V28.5H84.8z"/>
    <path class="st0" d="M70,85.6h20.4c1.5,0,2.7,1.2,2.7,2.7v7.1c0,1.5-1.2,2.7-2.7,2.7H44.2c-1.5,0-2.7-1.2-2.7-2.7v-7.1
      c0-1.5,1.2-2.7,2.7-2.7h20.4"/>
    <polyline class="st1" points="64.7,85.6 67.3,82.8 70,85.6 "/>
    <polygon points="48.9,88.2 50.1,90.6 52.7,91 50.8,92.8 51.2,95.4 48.9,94.2 46.6,95.4 47,92.8 45.1,91 47.7,90.6 "/>
    <polygon points="58.1,88.2 59.3,90.6 61.9,91 60,92.8 60.5,95.4 58.1,94.2 55.8,95.4 56.3,92.8 54.4,91 57,90.6 "/>
    <polygon points="67.4,88.2 68.6,90.6 71.2,91 69.3,92.8 69.7,95.4 67.4,94.2 65.1,95.4 65.5,92.8 63.6,91 66.2,90.6 "/>
    <polygon points="76.6,88.2 77.8,90.6 80.4,91 78.5,92.8 79,95.4 76.6,94.2 74.3,95.4 74.8,92.8 72.9,91 75.5,90.6 "/>
    <polygon points="85.9,88.2 87.1,90.6 89.7,91 87.8,92.8 88.2,95.4 85.9,94.2 83.6,95.4 84,92.8 82.1,91 84.7,90.6 "/>
    <polygon points="21,87.3 19.1,84.8 18.6,87.9 17.8,84.9 16.1,87.6 16.6,84.4 14,86.2 15.7,83.5 12.6,84.1 15.2,82.4 12.2,81.6 
      15.3,81.1 12.8,79.1 15.9,80 14.4,77.1 16.8,79.1 16.6,76 18.1,78.8 19.2,75.8 19.3,79 21.5,76.7 20.4,79.7 23.3,78.5 21.1,80.7 
      24.3,80.9 21.3,82 24.1,83.4 21,83.2 23,85.7 20.2,84.2 "/>
    <polygon points="70.5,70 71.1,71.1 72.3,71.7 71.1,72.4 70.5,73.5 69.9,72.4 68.7,71.7 69.9,71.1 "/>
    <polygon points="13.9,95.9 14.5,97.1 15.7,97.7 14.5,98.3 13.9,99.5 13.3,98.3 12.2,97.7 13.3,97.1 "/>
    <polygon points="97.3,10.3 97.9,11.4 99.1,12 97.9,12.7 97.3,13.8 96.7,12.7 95.6,12 96.7,11.4 "/>
    <polygon points="26.1,0.5 26.7,1.6 27.8,2.3 26.7,2.9 26.1,4 25.5,2.9 24.3,2.3 25.5,1.6 "/>
    <polygon points="2.4,24.3 3,25.4 4.1,26 3,26.6 2.4,27.8 1.7,26.6 0.6,26 1.7,25.4 "/>
    <circle class="st3" cx="51.9" cy="55.6" r="13.7"/>
    <path class="st4" d="M43.1,58.1c0,0,1.6,7.4,8.9,7.4s8.9-7.4,8.9-7.4"/>
    <ellipse cx="56" cy="50" rx="2.4" ry="4"/>
    <ellipse cx="47.9" cy="50" rx="2.4" ry="4"/>
    <path class="st5" d="M65.7,19.7h5.7c1.1,0,2-0.9,2-2V6c0-1.1-0.9-2-2-2H56c-1.1,0-2,0.9-2,2v11.7c0,1.1,0.9,2,2,2h5.4l2.3,2.7
      L65.7,19.7z"/>
    <path class="st3" d="M65.7,19.7"/>
    <path class="st5" d="M63.7,22.4l2-2.7L63.7,22.4z"/>
    <path class="st5" d="M90.4,47.3h5.7c1.1,0,2-0.9,2-2V33.7c0-1.1-0.9-2-2-2H80.7c-1.1,0-2,0.9-2,2v11.7c0,1.1,0.9,2,2,2h5.4l2.3,2.7
      L90.4,47.3z"/>
    <path class="st5" d="M14.2,57.6h5.7c1.1,0,2-0.9,2-2V43.9c0-1.1-0.9-2-2-2H4.5c-1.1,0-2,0.9-2,2v11.7c0,1.1,0.9,2,2,2h5.4l2.3,2.7
      L14.2,57.6z"/>
    <path class="st1" d="M73.4,12c0,0,23.5-5.4,17.4,19.6"/>
    <path class="st1" d="M5.9,57.6c0,0-13.8,24.8,11,24.3"/>
    <circle class="st6" cx="23.7" cy="22.9" r="1.8"/>
    <circle class="st6" cx="29.7" cy="22.9" r="1.8"/>
    <circle class="st6" cx="35.7" cy="22.9" r="1.8"/>
    <path d="M63.3,16.4"/>
    <path d="M58.4,10.8l4.9,5.6L58.4,10.8z"/>
    <path d="M68.6,9.7c0-1.5-1.2-2.8-2.8-2.8c-1.1,0-2,0.6-2.4,1.5c-0.5-0.9-1.4-1.5-2.4-1.5c-1.5,0-2.8,1.2-2.8,2.8
      c0,0.7,0.3,1.4,0.8,1.9h0l0,0c0,0,0,0,0,0l4.3,4.7l4.2-4.5C68.1,11.3,68.6,10.6,68.6,9.7z"/>
    <path d="M93.5,38.2c0-1.5-1.2-2.8-2.8-2.8c-1.1,0-2,0.6-2.4,1.5c-0.5-0.9-1.4-1.5-2.4-1.5c-1.5,0-2.8,1.2-2.8,2.8
      c0,0.7,0.3,1.4,0.8,1.9h0l0,0c0,0,0,0,0,0l4.3,4.7l4.2-4.5C93.1,39.9,93.5,39.1,93.5,38.2z"/>
    <path d="M17.3,48c0-1.5-1.2-2.8-2.8-2.8c-1.1,0-2,0.6-2.4,1.5c-0.5-0.9-1.4-1.5-2.4-1.5c-1.5,0-2.8,1.2-2.8,2.8
      c0,0.7,0.3,1.4,0.8,1.9h0l0,0c0,0,0,0,0,0l4.3,4.7l4.2-4.5C16.9,49.7,17.3,48.9,17.3,48z"/>
  </symbol>
  <symbol viewBox="0 0 100 100" id="service4">
    <style type="text/css">
      .st0{fill:#FFFFFF;stroke:#000000;stroke-miterlimit:10;}
      .st1{fill:none;stroke:#000000;stroke-linecap:round;stroke-linejoin:round;stroke-miterlimit:10;}
    </style>
    <g>
      <path class="st0" d="M75.9,19.7l-11.5,6.6c-0.6,0.4-1.4,0.1-1.7-0.5l-3.8-6.6c-0.4-0.6-0.1-1.4,0.5-1.7l11.5-6.6
        c0.6-0.4,1.4-0.1,1.7,0.5l3.8,6.6C76.7,18.6,76.5,19.3,75.9,19.7z"/>
      <polyline class="st0" points="71.9,10.8 68.5,20 58.7,18.6 	"/>
      <line class="st0" x1="63.6" y1="26.5" x2="66.4" y2="19.7"/>
      <line class="st0" x1="69.2" y1="18.1" x2="76.6" y2="18.6"/>
    </g>
    <g>
      <path class="st0" d="M76.7,38.6L69.9,46c-0.5,0.5-1.3,0.6-1.8,0.1l-4-3.7c-0.5-0.5-0.6-1.3-0.1-1.8l6.8-7.4
        c0.5-0.5,1.3-0.6,1.8-0.1l4,3.7C77.2,37.3,77.2,38.1,76.7,38.6z"/>
      <polyline class="st0" points="71.7,32.7 71.4,40.4 63.6,41.7 	"/>
      <line class="st0" x1="69.2" y1="46.5" x2="69.7" y2="40.7"/>
      <line class="st0" x1="71.5" y1="38.8" x2="77.1" y2="37.5"/>
    </g>
    <g>
      <path class="st0" d="M48.7,66.2L37,80.5c-0.4,0.5-1.3,0.6-1.8,0.2l-8.4-7c-0.5-0.4-0.6-1.3-0.2-1.8l11.8-14.3
        c0.4-0.5,1.3-0.6,1.8-0.2l8.4,7C49.1,64.9,49.2,65.7,48.7,66.2z"/>
      <polyline class="st0" points="39.3,57.4 39.4,70.4 26.5,73.2 	"/>
      <line class="st0" x1="36.3" y1="80.8" x2="36.6" y2="71"/>
      <line class="st0" x1="39.4" y1="67.7" x2="48.7" y2="64.9"/>
    </g>
    <ellipse transform="matrix(0.2887 -0.9574 0.9574 0.2887 42.0271 101.6836)" cx="89.4" cy="22.6" rx="15.3" ry="9.3"/>
    <ellipse transform="matrix(0.9546 -0.298 0.298 0.9546 -23.4183 7.8833)" cx="14.1" cy="80.8" rx="9.3" ry="15.3"/>
    <polygon points="5.2,66.6 4.3,67.9 4.2,69.5 2.9,68.6 1.3,68.5 2.2,67.2 2.2,65.6 3.6,66.5 "/>
    <polygon points="27.8,93.8 26.5,93.1 25,93.2 25.7,91.9 25.5,90.4 26.9,91.1 28.3,91 27.6,92.3 "/>
    <polygon points="85.4,6.6 84,7.3 83.1,8.7 82.4,7.2 81,6.3 82.5,5.6 83.4,4.2 84.1,5.7 "/>
    <polygon points="95.9,36 97.2,35.8 98.1,34.9 98.4,36.2 99.3,37.1 98,37.4 97,38.2 96.8,37 "/>
    <path class="st1" d="M78.6,23.1c0,0-17.2,5.4-32.9,35.8"/>
    <path class="st1" d="M83.9,38.8c0,0-14.5,10.2-26.2,32.2c0,0,1.7-2.8-0.4-7"/>
    <path class="st1" d="M23.8,88.8c0,0,8.5,1.4,20.8-12.9S65,46.5,65,46.5"/>
    <path class="st1" d="M59.8,24.1C39.4,44.9,40.5,58.5,21.7,72.3"/>
    <path class="st1" d="M15.5,67.1c0,0,9.3-4.1,27.4-34.5c0,0-1.5,3-6.6,2.2"/>
    <path class="st1" d="M36.3,34.9"/>
    <path class="st1" d="M42.9,32.7c0,0-2,4.3,0,6.9"/>
    <path class="st1" d="M57.7,71c0,0,2.1-3.4,6.2-2.6"/>
  </symbol>
  <symbol viewBox="0 0 100 100" id="service5">
    <style type="text/css">
      .st0{fill:#FFFFFF;stroke:#000000;stroke-miterlimit:10;}
      .st1{fill:none;stroke:#000000;stroke-miterlimit:10;}
      .st2{fill:none;stroke:#000000;stroke-linecap:round;stroke-linejoin:round;stroke-miterlimit:10;}
      .st3{stroke:#000000;stroke-miterlimit:10;}
    </style>
    <polygon class="st0" points="36.2,79.7 35.2,81.1 36.9,81.7 35.2,82.2 36.1,83.7 34.5,83 34.2,84.8 33.4,83.2 32.1,84.4 32.5,82.7 
      30.7,82.7 32.1,81.7 30.8,80.6 32.5,80.6 32.2,78.9 33.5,80.1 34.3,78.6 34.5,80.3 "/>
    <polygon class="st0" points="27.5,57.6 26,60 28.7,60.9 26,61.8 27.5,64.2 24.8,63.1 24.4,66 23.1,63.4 20.9,65.3 21.6,62.5 
      18.7,62.6 21,60.9 18.7,59.1 21.6,59.2 21,56.4 23.1,58.4 24.5,55.8 24.9,58.7 "/>
    <circle class="st1" cx="69.9" cy="44.5" r="6.6"/>
    <path class="st2" d="M65.8,49.7l8.3-10.3c0,0,0,3.8-2.1,6.4C69.9,48.3,65.8,49.7,65.8,49.7z"/>
    <path class="st2" d="M65.8,49.7c0,0,0.3-3.5,2.9-6.7c2.5-3.2,5.4-3.7,5.4-3.7s2.5,4-0.4,7.7C70.7,50.8,65.8,49.7,65.8,49.7z"/>
    <path class="st2" d="M74.1,39.4c0,0-4.1-1.4-7.1,2.4c-3,3.7-1.2,8-1.2,8"/>
    <line class="st1" x1="64.8" y1="40.4" x2="75.1" y2="48.7"/>
    <path class="st1" d="M67.8,38.2c0,0,0.6,2.5,3.4,4.7c2.8,2.3,5.3,2.5,5.3,2.5"/>
    <path class="st1" d="M63.6,42.8c0,0,2.9,0.9,5.4,2.9c2.5,2,4,4.6,4,4.6"/>
    <path class="st1" d="M63.4,45.6c0,0,2.3,0.5,4.1,2c1.8,1.4,2.8,3.6,2.8,3.6"/>
    <path class="st1" d="M69.6,37.9c0,0,0.9,1.7,2.9,3.4c2.1,1.7,4,2.2,4,2.2"/>
    <g>
      <path class="st3" d="M96.5,87.7c0.1,1.2-0.8,2.3-2,2.4l-9.9,0.9l-1.2-14.1l9.9-0.9c1.2-0.1,2.2,0.8,2.4,2L96.5,87.7z"/>
      <path class="st0" d="M84.6,90.9l-40.8,3.6c-1.2,0.1-2.2-0.8-2.4-2l-0.9-9.8c-0.1-1.2,0.8-2.3,2-2.4l40.9-3.6L84.6,90.9z"/>
      <circle class="st0" cx="44.8" cy="84.5" r="1.3"/>
      <circle class="st0" cx="49.3" cy="83.9" r="1.3"/>
      <circle class="st0" cx="53.7" cy="83.4" r="1.3"/>
    </g>
    <g>
      <path class="st3" d="M68.5,19.1c0.1,1.2-0.8,2.2-2,2.4l-9.9,0.9L55.4,8.2l9.9-0.9c1.2-0.1,2.2,0.8,2.4,2L68.5,19.1z"/>
      <path class="st0" d="M56.6,22.3l-40.8,3.6c-1.2,0.1-2.3-0.8-2.4-2l-0.9-9.8c-0.1-1.2,0.8-2.2,2-2.4l40.9-3.6L56.6,22.3z"/>
      <circle class="st0" cx="16.8" cy="15.9" r="1.3"/>
      <circle class="st0" cx="21.3" cy="15.3" r="1.3"/>
      <circle class="st0" cx="25.8" cy="14.7" r="1.3"/>
    </g>
    <g>
      <path class="st0" d="M93,38.2l-50.6-5.8c-1.2-0.1-2.1-1.2-1.9-2.4l1.1-9.8c0.1-1.2,1.2-2.1,2.4-1.9l50.6,5.8
        c1.2,0.1,2.1,1.2,1.9,2.4l-1.1,9.8C95.3,37.5,94.2,38.4,93,38.2z"/>
      <line class="st1" x1="84.7" y1="23" x2="83.1" y2="37.1"/>
      <circle class="st0" cx="45.4" cy="22.7" r="1.3"/>
      <circle class="st0" cx="49.9" cy="23.1" r="1.3"/>
      <circle class="st0" cx="54.4" cy="23.4" r="1.3"/>
    </g>
    <g>
      <path class="st0" d="M63.8,52.6L7.5,51.2c-1.3,0-2.4-1.3-2.3-2.9l0.3-12.7c0-1.6,1.1-2.8,2.5-2.7l56.2,1.4c1.3,0,2.4,1.3,2.3,2.9
        l-0.3,12.7C66.2,51.4,65.1,52.7,63.8,52.6z"/>
      <line class="st1" x1="48.8" y1="34" x2="47.9" y2="52.2"/>
      <circle class="st0" cx="9.6" cy="37.2" r="1.3"/>
      <circle class="st0" cx="14.1" cy="37.2" r="1.3"/>
      <circle class="st0" cx="18.6" cy="37.1" r="1.3"/>
    </g>
    <g>
      <path class="st0" d="M92.7,68.8l-50,0.2c-1.2,0-2.1-1.5-2.2-3.4l-0.1-15.2c0-1.9,0.9-3.4,2.1-3.4l50-0.2c1.2,0,2.1,1.5,2.2,3.4
        l0.1,15.2C94.8,67.3,93.9,68.8,92.7,68.8z"/>
      <line class="st1" x1="76.4" y1="46.9" x2="76.7" y2="68.7"/>
      <circle class="st0" cx="44.1" cy="51.2" r="1.3"/>
      <circle class="st0" cx="48.6" cy="51.1" r="1.3"/>
      <circle class="st0" cx="53.1" cy="51" r="1.3"/>
    </g>
    <g>
      <path class="st3" d="M59.5,71.1l-1.1,9.8c-0.1,1.2-1.2,2.1-2.4,1.9l-9.9-1.1l1.6-14.1l9.8,1.1C58.8,68.9,59.6,69.9,59.5,71.1z"/>
      <path class="st0" d="M47.7,67.6l-1.6,14.1L5.3,77c-1.2-0.1-2-1.2-1.9-2.4l1.1-9.8c0.1-1.2,1.2-2,2.4-1.9L47.7,67.6z"/>
      <circle class="st0" cx="8.4" cy="67.3" r="1.3"/>
      <circle class="st0" cx="12.9" cy="67.6" r="1.3"/>
      <circle class="st0" cx="17.4" cy="68" r="1.3"/>
    </g>
    <polygon class="st0" points="80.7,11.4 79.2,13.9 81.9,14.8 79.1,15.6 80.6,18.1 78,17 77.6,19.8 76.3,17.3 74.1,19.2 74.7,16.4 
      71.9,16.4 74.2,14.7 71.9,12.9 74.8,13.1 74.2,10.2 76.3,12.2 77.7,9.7 78,12.5 "/>
  </symbol>
  <symbol viewBox="0 0 100 100" id="service6">
    <style type="text/css">
      .st0{fill:none;stroke:#000000;stroke-miterlimit:10;}
      .st1{fill:none;stroke:#000000;stroke-linecap:round;stroke-linejoin:round;stroke-miterlimit:10;}
      .st2{fill:#FFFFFF;stroke:#000000;stroke-miterlimit:10;}
      .st3{fill:#FFFFFF;stroke:#000000;stroke-linecap:round;stroke-linejoin:round;stroke-miterlimit:10;}
      .st4{fill:#FFFFFF;stroke:#000000;stroke-linecap:round;stroke-miterlimit:10;}
      .st5{stroke:#000000;stroke-linecap:round;stroke-miterlimit:10;}
      .st6{stroke:#000000;stroke-linecap:round;stroke-linejoin:round;stroke-miterlimit:10;}
    </style>
    <circle class="st0" cx="39" cy="84.4" r="9"/>
    <path class="st1" d="M32.3,90.5l13.3-12.1c0,0-0.9,5.1-4.1,8.1C38.2,89.5,32.3,90.5,32.3,90.5z"/>
    <path class="st1" d="M32.3,90.5c0,0,1.2-4.6,5.3-8.3s8-3.8,8-3.8s2.5,5.9-2.2,10.2C38.6,93,32.3,90.5,32.3,90.5z"/>
    <path class="st1" d="M45.6,78.4c0,0-5.2-2.7-10,1.6c-4.8,4.4-3.3,10.5-3.3,10.5"/>
    <line class="st0" x1="32.9" y1="77.8" x2="45" y2="91.1"/>
    <path class="st0" d="M37.5,75.5c0,0,0.3,3.4,3.6,7s6.5,4.5,6.5,4.5"/>
    <path class="st0" d="M30.8,80.8c0,0,3.7,1.9,6.6,5.1c2.9,3.2,4.4,7.1,4.4,7.1"/>
    <path class="st0" d="M30,84.5c0,0,3,1.2,5.1,3.5c2.1,2.3,3,5.4,3,5.4"/>
    <path class="st0" d="M39.9,75.5c0,0,0.8,2.5,3.2,5.2s4.8,3.8,4.8,3.8"/>
    <path class="st2" d="M61.7,51.3l-47.6,7.4C13,58.8,12,58.1,11.8,57L7,26C6.9,25,7.6,24,8.7,23.8l47.6-7.4c1.1-0.2,2.1,0.6,2.2,1.6
      l4.8,31C63.5,50.1,62.7,51.1,61.7,51.3z"/>
    <path class="st2" d="M93.1,50.7l-32.7-1.4c-1.1,0-1.9-1-1.9-2.1l1-23.9c0-1.1,1-1.9,2.1-1.9l32.7,1.4c1.1,0,1.9,1,1.9,2.1l-1,23.9
      C95.1,49.9,94.2,50.8,93.1,50.7z"/>
    <path class="st2" d="M64.3,80.3L32,78.9c-1.1,0-2-1-2-2.2l1.5-34.2c0-1.1,1-2,2.2-2L65.9,42c1.1,0,2,1,2,2.2l-1.5,34.2
      C66.4,79.5,65.4,80.3,64.3,80.3z"/>
    <path class="st2" d="M88.9,83.9l-20.6,1.4c-1.1,0.1-2-0.8-2.1-1.9l-2.1-32c-0.1-1.1,0.8-2,1.9-2.1l20.6-1.4c1.1-0.1,2,0.8,2.1,1.9
      l2.1,32C90.8,82.9,90,83.8,88.9,83.9z"/>
    <path class="st2" d="M33.3,86.3l-20.6,1.4c-1.1,0.1-2-0.8-2.1-1.9l-2.1-32c-0.1-1.1,0.8-2,1.9-2.1L31,50.3c1.1-0.1,2,0.8,2.1,1.9
      l2.1,32C35.2,85.3,34.4,86.3,33.3,86.3z"/>
    <polyline class="st1" points="12.6,75.9 13.3,63.1 15.1,69.5 16,61.5 17.4,77.2 18.4,72 20.7,75.2 20.7,65.3 24.9,73.9 24.9,63.1 
      28.8,74.1 29.3,65.4 31.4,71.2 31.4,67.1 "/>
    <polygon class="st3" points="51.7,20.4 48.9,19.8 49.4,22.6 47.5,20.5 46.2,23 45.9,20.1 43.3,21.4 44.8,19 42,18.5 44.6,17.3 
      42.6,15.3 45.4,15.9 45,13.1 46.8,15.3 48.2,12.7 48.4,15.6 51,14.3 49.5,16.8 52.4,17.2 49.7,18.4 "/>
    <polygon points="19.5,18.4 18.4,19 17.8,20.1 17.3,19 16.2,18.4 17.3,17.9 17.8,16.8 18.4,17.9 "/>
    <polygon points="74.8,16.8 73.9,17.3 73.4,18.2 72.9,17.3 72,16.8 72.9,16.3 73.4,15.4 73.9,16.3 "/>
    <polygon points="95.8,58.4 95.2,58.9 95,59.6 94.5,59 93.7,58.8 94.3,58.3 94.6,57.5 95.1,58.1 "/>
    <polygon points="55.2,85.9 54.6,86.4 54.4,87.2 53.9,86.6 53.1,86.4 53.7,85.8 53.9,85.1 54.5,85.7 "/>
    <polygon points="5.7,48.1 5.1,48.5 4.8,49.2 4.3,48.6 3.6,48.3 4.2,47.8 4.5,47.1 5,47.8 "/>
    <circle cx="10.6" cy="26.6" r="0.9"/>
    <circle cx="14" cy="26" r="0.9"/>
    <circle cx="17.5" cy="25.4" r="0.9"/>
    <circle cx="62.8" cy="24" r="0.8"/>
    <circle cx="66.1" cy="24.3" r="0.8"/>
    <circle cx="69.6" cy="24.5" r="0.8"/>
    <circle cx="11.4" cy="54.4" r="0.8"/>
    <circle cx="14.1" cy="54.1" r="0.8"/>
    <circle cx="16.9" cy="53.9" r="0.8"/>
    <circle cx="34.4" cy="42.9" r="0.8"/>
    <circle cx="37.7" cy="43.1" r="0.8"/>
    <circle cx="41.3" cy="43.3" r="0.8"/>
    <circle cx="67.2" cy="51.7" r="0.8"/>
    <circle cx="70.5" cy="51.6" r="0.8"/>
    <circle cx="73.9" cy="51.3" r="0.8"/>
    <line class="st0" x1="7.6" y1="29.6" x2="59.1" y2="21.8"/>
    <line class="st0" x1="59.4" y1="26" x2="96.1" y2="27.7"/>
    <line class="st0" x1="64.1" y1="54.6" x2="88.8" y2="53.2"/>
    <line class="st0" x1="31.4" y1="44.8" x2="67.8" y2="46.5"/>
    <line class="st0" x1="8.7" y1="56.8" x2="33.3" y2="55.4"/>
    <polyline class="st4" points="16.9,51.3 14.6,36.1 14,32.1 "/>
    <line class="st4" x1="52.4" y1="29.6" x2="14.6" y2="36.1"/>
    <line class="st4" x1="42" y1="33.8" x2="14.9" y2="38.3"/>
    <path class="st2" d="M37,37.6"/>
    <path class="st2" d="M15.3,40.6"/>
    <path class="st2" d="M38.5,36.7"/>
    <path class="st1" d="M63.5,40.3c1-2.5,1.5-6.6,4.7-7.1c1.8-0.3,5.6,0.1,6.8,1.7c1.3,1.7,1.1,4,2.7,5.6c7,7.2,7-11.2,13.2-8.9"/>
    <path class="st1" d="M67.3,39.5c1.4-2.6,3.3-6.2,6.4-7.1c3.7-1,5.2,1.4,6.3,4.5c1.2,3.2,2.8,4.8,6.4,4.5c2.5-0.2,4.8-2.9,5.6-5.2"/>
    <line class="st1" x1="69.6" y1="81.3" x2="87" y2="80"/>
    <line class="st3" x1="78.3" y1="80.6" x2="76.5" y2="57.5"/>
    <line class="st3" x1="80.9" y1="80.5" x2="79" y2="60.4"/>
    <line class="st3" x1="83.4" y1="80.3" x2="81.7" y2="63.2"/>
    <line class="st3" x1="85.6" y1="80.1" x2="84.5" y2="66.6"/>
    <line class="st3" x1="75.5" y1="80.6" x2="73.9" y2="60.4"/>
    <path class="st2" d="M72,80.8"/>
    <line class="st3" x1="70.4" y1="63.8" x2="72" y2="80.8"/>
    <line class="st4" x1="15.3" y1="40.6" x2="41.3" y2="36.7"/>
    <line class="st4" x1="15.8" y1="43.9" x2="29.1" y2="41.7"/>
    <line class="st4" x1="16.3" y1="47.3" x2="27.4" y2="45.6"/>
    <path class="st5" d="M49,62v13.8c-7.6,0-13.8-6.2-13.8-13.8c0-1.8,0.4-3.6,1-5.2L49,62z"/>
    <path class="st4" d="M54.2,49.3L49,62l-12.7-5.2c2.1-5,7-8.6,12.7-8.6C50.8,48.2,52.6,48.6,54.2,49.3z"/>
    <path class="st4" d="M62.7,62c0,7.6-6.2,13.8-13.8,13.8V62l13-4.5C62.5,58.9,62.7,60.4,62.7,62z"/>
    <path class="st6" d="M62,57.5L49,62l5.2-12.7C57.8,50.8,60.7,53.8,62,57.5z"/>
    <path class="st3" d="M49,62l-5.2-12.7L49,62z"/>
    <line class="st3" x1="62.3" y1="65.4" x2="49" y2="62"/>
  </symbol>
</svg>